<svg width="86" height="86" viewBox="0 0 86 86" fill="none" xmlns="http://www.w3.org/2000/svg">
<g filter="url(#filter0_dd_127_3524)">
<rect x="15" width="56" height="56" rx="16" fill="#FFE0E0"/>
</g>
<path d="M59 19.5294V14.8235C59 13.2666 57.7383 12 56.1875 12H29.8125C28.2617 12 27 13.2666 27 14.8235V19.5294H59ZM48.625 15.7647H54.25C54.7677 15.7647 55.1875 16.1861 55.1875 16.7059C55.1875 17.2257 54.7677 17.6471 54.25 17.6471H48.625C48.1073 17.6471 47.6875 17.2257 47.6875 16.7059C47.6875 16.1861 48.1073 15.7647 48.625 15.7647ZM39.25 15.7647C39.7677 15.7647 40.1875 16.1861 40.1875 16.7059C40.1875 17.2257 39.7677 17.6471 39.25 17.6471C38.7323 17.6471 38.3125 17.2257 38.3125 16.7059C38.3125 16.1861 38.7323 15.7647 39.25 15.7647ZM35.5 15.7647C36.0177 15.7647 36.4375 16.1861 36.4375 16.7059C36.4375 17.2257 36.0177 17.6471 35.5 17.6471C34.9823 17.6471 34.5625 17.2257 34.5625 16.7059C34.5625 16.1861 34.9823 15.7647 35.5 15.7647ZM31.75 15.7647C32.2677 15.7647 32.6875 16.1861 32.6875 16.7059C32.6875 17.2257 32.2677 17.6471 31.75 17.6471C31.2323 17.6471 30.8125 17.2257 30.8125 16.7059C30.8125 16.1861 31.2323 15.7647 31.75 15.7647Z" fill="#FF1F1F"/>
<path d="M27 21.4116V41.1763C27 42.7332 28.2617 43.9999 29.8125 43.9999H56.1875C57.7383 43.9999 59 42.7332 59 41.1763V21.4116H27ZM37.9606 34.7943C38.365 35.119 38.4305 35.7113 38.1071 36.1172C37.7837 36.523 37.1936 36.5889 36.7894 36.2641L32.1019 32.4994C31.6332 32.1232 31.6329 31.4062 32.1019 31.0296L36.7894 27.2649C37.1935 26.9402 37.7836 27.0059 38.1071 27.4118C38.4305 27.8177 38.365 28.41 37.9606 28.7347L34.1883 31.7646L37.9606 34.7943ZM46.6742 25.5471L41.0492 38.7236C40.8453 39.2012 40.2943 39.4227 39.8182 39.2179C39.3423 39.0131 39.1218 38.4598 39.3258 37.982L44.9508 24.8056C45.1548 24.3278 45.7059 24.1065 46.1818 24.3113C46.6577 24.516 46.8782 25.0693 46.6742 25.5471ZM53.8981 32.4995L49.2106 36.2642C48.807 36.5885 48.2169 36.5237 47.8929 36.1173C47.5695 35.7114 47.635 35.119 48.0394 34.7944L51.8118 31.7646L48.0394 28.7348C47.635 28.4101 47.5695 27.8178 47.8929 27.4119C48.2163 27.006 48.8063 26.9402 49.2106 27.265L53.8981 31.0297C54.3668 31.406 54.3671 32.1229 53.8981 32.4995Z" fill="#FF1F1F"/>
<defs>
<filter id="filter0_dd_127_3524" x="0" y="0" width="86" height="86" filterUnits="userSpaceOnUse" color-interpolation-filters="sRGB">
<feFlood flood-opacity="0" result="BackgroundImageFix"/>
<feColorMatrix in="SourceAlpha" type="matrix" values="0 0 0 0 0 0 0 0 0 0 0 0 0 0 0 0 0 0 127 0" result="hardAlpha"/>
<feOffset dy="4"/>
<feGaussianBlur stdDeviation="2"/>
<feComposite in2="hardAlpha" operator="out"/>
<feColorMatrix type="matrix" values="0 0 0 0 1 0 0 0 0 0.120833 0 0 0 0 0.120833 0 0 0 0.17 0"/>
<feBlend mode="normal" in2="BackgroundImageFix" result="effect1_dropShadow_127_3524"/>
<feColorMatrix in="SourceAlpha" type="matrix" values="0 0 0 0 0 0 0 0 0 0 0 0 0 0 0 0 0 0 127 0" result="hardAlpha"/>
<feOffset dy="15"/>
<feGaussianBlur stdDeviation="7.5"/>
<feComposite in2="hardAlpha" operator="out"/>
<feColorMatrix type="matrix" values="0 0 0 0 1 0 0 0 0 0.120833 0 0 0 0 0.120833 0 0 0 0.15 0"/>
<feBlend mode="normal" in2="effect1_dropShadow_127_3524" result="effect2_dropShadow_127_3524"/>
<feBlend mode="normal" in="SourceGraphic" in2="effect2_dropShadow_127_3524" result="shape"/>
</filter>
</defs>
</svg>
