<svg width="86" height="86" viewBox="0 0 86 86" fill="none" xmlns="http://www.w3.org/2000/svg">
<g filter="url(#filter0_dd_127_3529)">
<rect x="15" width="56" height="56" rx="16" fill="#BEFFD0"/>
</g>
<path d="M58.0625 12H54.25C53.7318 12 53.3125 12.4193 53.3125 12.9375V13.875H45.6398C45.2515 12.7861 44.2206 12 43 12C41.7794 12 40.7485 12.7861 40.3602 13.875H32.6875V12.9375C32.6875 12.4193 32.2682 12 31.75 12H27.9375C27.4193 12 27 12.4193 27 12.9375V16.6875C27 17.2057 27.4193 17.625 27.9375 17.625H31.75C32.2682 17.625 32.6875 17.2057 32.6875 16.6875V15.7375H36.5378C33.2842 17.7701 31.1389 21.34 30.8824 25.3384C29.7576 25.7066 28.9375 26.7537 28.9375 28C28.9375 29.5509 30.1991 30.8125 31.75 30.8125C33.3009 30.8125 34.5625 29.5509 34.5625 28C34.5625 26.8038 33.8087 25.7867 32.7537 25.3808C33.0736 20.923 36.1841 17.1658 40.5108 16.0938C40.9788 16.9986 41.9129 17.625 43 17.625C44.0871 17.625 45.0212 16.9986 45.4892 16.0938C49.8159 17.1657 52.9264 20.9229 53.2463 25.3807C52.1913 25.7867 51.4375 26.8038 51.4375 28C51.4375 29.5509 52.6991 30.8125 54.25 30.8125C55.8009 30.8125 57.0625 29.5509 57.0625 28C57.0625 26.7537 56.2424 25.7066 55.1176 25.3384C54.8611 21.34 52.7158 17.7826 49.4622 15.75H53.3125V16.6875C53.3125 17.2057 53.7318 17.625 54.25 17.625H58.0625C58.5807 17.625 59 17.2057 59 16.6875V12.9375C59 12.4193 58.5807 12 58.0625 12Z" fill="#07CD86"/>
<path d="M49.3793 42.8372C48.8889 41.3366 47.4762 40.1875 45.8137 40.1875H40.1887C38.5262 40.1875 37.1134 41.3366 36.623 42.8372C36.434 43.4157 36.9262 44 37.5349 44H48.4674C49.0761 44 49.5684 43.4157 49.3793 42.8372Z" fill="#07CD86"/>
<path d="M51.28 31.2301L43.9375 20.2163V29.1103C45.0264 29.4986 45.8125 30.5295 45.8125 31.7501C45.8125 33.301 44.5509 34.5626 43 34.5626C41.4491 34.5626 40.1875 33.301 40.1875 31.7501C40.1875 30.5295 40.9736 29.4986 42.0625 29.1103V20.2163L34.72 31.2301C34.4719 31.6018 34.5213 32.0971 34.8372 32.413C36.5583 34.1341 37.6584 36.3512 38.0829 38.7296C38.7342 38.4654 39.4425 38.3126 40.1875 38.3126H45.8125C46.5575 38.3126 47.2658 38.4653 47.9171 38.7294C48.3416 36.351 49.4418 34.1341 51.1628 32.413C51.4787 32.0971 51.5281 31.6018 51.28 31.2301Z" fill="#07CD86"/>
<path d="M43 30.8125C42.4827 30.8125 42.0625 31.2327 42.0625 31.75C42.0625 32.2673 42.4827 32.6875 43 32.6875C43.5173 32.6875 43.9375 32.2673 43.9375 31.75C43.9375 31.2327 43.5173 30.8125 43 30.8125Z" fill="#07CD86"/>
<defs>
<filter id="filter0_dd_127_3529" x="0" y="0" width="86" height="86" filterUnits="userSpaceOnUse" color-interpolation-filters="sRGB">
<feFlood flood-opacity="0" result="BackgroundImageFix"/>
<feColorMatrix in="SourceAlpha" type="matrix" values="0 0 0 0 0 0 0 0 0 0 0 0 0 0 0 0 0 0 127 0" result="hardAlpha"/>
<feOffset dy="15"/>
<feGaussianBlur stdDeviation="7.5"/>
<feComposite in2="hardAlpha" operator="out"/>
<feColorMatrix type="matrix" values="0 0 0 0 0.0268056 0 0 0 0 0.804167 0 0 0 0 0.524317 0 0 0 0.2 0"/>
<feBlend mode="normal" in2="BackgroundImageFix" result="effect1_dropShadow_127_3529"/>
<feColorMatrix in="SourceAlpha" type="matrix" values="0 0 0 0 0 0 0 0 0 0 0 0 0 0 0 0 0 0 127 0" result="hardAlpha"/>
<feOffset dy="4"/>
<feGaussianBlur stdDeviation="2"/>
<feComposite in2="hardAlpha" operator="out"/>
<feColorMatrix type="matrix" values="0 0 0 0 0.0268056 0 0 0 0 0.804167 0 0 0 0 0.524317 0 0 0 0.33 0"/>
<feBlend mode="normal" in2="effect1_dropShadow_127_3529" result="effect2_dropShadow_127_3529"/>
<feBlend mode="normal" in="SourceGraphic" in2="effect2_dropShadow_127_3529" result="shape"/>
</filter>
</defs>
</svg>
