<svg width="33" height="32" viewBox="0 0 33 32" fill="none" xmlns="http://www.w3.org/2000/svg">
<circle cx="16.6666" cy="16" r="15.5" fill="white" stroke="#E5E5E5"/>
<path fill-rule="evenodd" clip-rule="evenodd" d="M14 8.8002C11.4963 8.8002 9.4667 10.8298 9.4667 13.3335V18.6669C9.4667 21.1706 11.4963 23.2002 14 23.2002H19.3334C21.8371 23.2002 23.8667 21.1706 23.8667 18.6669V13.3335C23.8667 10.8298 21.8371 8.8002 19.3334 8.8002H14ZM7.8667 13.3335C7.8667 9.94618 10.6127 7.2002 14 7.2002H19.3334C22.7207 7.2002 25.4667 9.94618 25.4667 13.3335V18.6669C25.4667 22.0542 22.7207 24.8002 19.3334 24.8002H14C10.6127 24.8002 7.8667 22.0542 7.8667 18.6669V13.3335ZM16.6669 13.2445C15.1451 13.2445 13.9114 14.4782 13.9114 16.0001C13.9114 17.5219 15.1451 18.7556 16.6669 18.7556C18.1888 18.7556 19.4225 17.5219 19.4225 16.0001C19.4225 14.4782 18.1888 13.2445 16.6669 13.2445ZM12.3114 16.0001C12.3114 13.5946 14.2614 11.6445 16.6669 11.6445C19.0724 11.6445 21.0225 13.5946 21.0225 16.0001C21.0225 18.4056 19.0724 20.3556 16.6669 20.3556C14.2614 20.3556 12.3114 18.4056 12.3114 16.0001ZM21.9999 11.4579C21.9999 11.9488 21.602 12.3468 21.1111 12.3468C20.6201 12.3468 20.2222 11.9488 20.2222 11.4579C20.2222 10.967 20.6201 10.569 21.1111 10.569C21.602 10.569 21.9999 10.967 21.9999 11.4579Z" fill="url(#paint0_linear_127_1499)"/>
<defs>
<linearGradient id="paint0_linear_127_1499" x1="23.3335" y1="8.00033" x2="10.6668" y2="24.0003" gradientUnits="userSpaceOnUse">
<stop stop-color="#8F00FF"/>
<stop offset="0.78637" stop-color="#FF4E00"/>
<stop offset="1" stop-color="#FF9900"/>
</linearGradient>
</defs>
</svg>
