<svg width="32" height="32" viewBox="0 0 32 32" fill="none" xmlns="http://www.w3.org/2000/svg">
<circle cx="16" cy="16" r="16" fill="#FF9900"/>
<path d="M16.344 22.216C17.064 22.216 17.7147 22.0533 18.296 21.728C18.8773 21.4027 19.3387 20.9547 19.68 20.384C20.0213 19.808 20.192 19.1547 20.192 18.424C20.192 17.8 20.0693 17.2293 19.824 16.712C19.584 16.1947 19.2373 15.7707 18.784 15.44C18.336 15.104 17.8 14.8933 17.176 14.808L20.024 12.072V10.48H13.096V12.072H17.976L14.456 15.184L15.24 16.504C15.5973 16.312 15.96 16.216 16.328 16.216C16.968 16.216 17.4853 16.424 17.88 16.84C18.28 17.256 18.48 17.784 18.48 18.424C18.48 19.0587 18.2827 19.584 17.888 20C17.4933 20.4107 16.9787 20.6213 16.344 20.632C15.8747 20.6373 15.448 20.5093 15.064 20.248C14.68 19.9867 14.4107 19.6053 14.256 19.104L12.64 19.552C12.8053 20.096 13.0693 20.568 13.432 20.968C13.8 21.368 14.2347 21.6773 14.736 21.896C15.2373 22.1093 15.7733 22.216 16.344 22.216Z" fill="white"/>
</svg>
