<svg width="33" height="32" viewBox="0 0 33 32" fill="none" xmlns="http://www.w3.org/2000/svg">
<path fill-rule="evenodd" clip-rule="evenodd" d="M16.3334 32C7.4968 32 0.333374 24.8366 0.333374 16C0.333374 7.16343 7.4968 0 16.3334 0C25.1699 0 32.3334 7.16343 32.3334 16C32.3334 24.8366 25.1699 32 16.3334 32ZM25.4104 9.4144C24.6479 9.8368 23.8049 10.144 22.9071 10.3104C22.1894 9.59176 21.1645 9.14378 20.0317 9.14378C17.8557 9.14378 16.0902 10.7968 16.0902 12.8366C16.0902 13.1264 16.1249 13.4089 16.1926 13.6777C12.9176 13.5241 10.0138 12.0539 8.07007 9.81943C7.73178 10.3653 7.53703 10.9989 7.53703 11.6763C7.53703 12.9573 8.23279 14.0882 9.28971 14.7502C8.64422 14.731 8.03714 14.5655 7.50503 14.2885V14.3351C7.50503 16.1243 8.86274 17.6174 10.6657 17.9557C10.3357 18.0407 9.9873 18.0846 9.62799 18.0846C9.37382 18.0846 9.12698 18.0626 8.88653 18.0206C9.38756 19.4862 10.8431 20.5541 12.5674 20.5842C11.2189 21.5744 9.52013 22.165 7.67327 22.165C7.3551 22.165 7.04149 22.1477 6.73337 22.1138C8.47692 23.1607 10.5487 23.7724 12.7741 23.7724C20.0225 23.7724 23.9859 18.144 23.9859 13.2654C23.9859 13.1045 23.9814 12.9454 23.9741 12.7863C24.7439 12.2651 25.4122 11.616 25.9407 10.8754C25.2339 11.1698 24.4742 11.3673 23.6778 11.4569C24.4915 10.9989 25.116 10.2757 25.4104 9.4144Z" fill="#2697FF"/>
</svg>
