<svg width="32" height="32" viewBox="0 0 32 32" fill="none" xmlns="http://www.w3.org/2000/svg">
<circle cx="16" cy="16" r="16" fill="#FF9900"/>
<path d="M12.8 21.992H20.592V20.4H15.384L18.72 17.424C19.136 17.056 19.4827 16.7147 19.76 16.4C20.0373 16.0853 20.2453 15.744 20.384 15.376C20.5227 15.0027 20.592 14.5547 20.592 14.032C20.592 13.3013 20.424 12.6507 20.088 12.08C19.7573 11.5093 19.304 11.0613 18.728 10.736C18.152 10.4053 17.5013 10.24 16.776 10.24C16.0133 10.24 15.3333 10.4 14.736 10.72C14.144 11.0347 13.68 11.4747 13.344 12.04C13.008 12.6 12.84 13.2533 12.84 14H14.552C14.5467 13.6107 14.6373 13.2533 14.824 12.928C15.016 12.5973 15.2773 12.3333 15.608 12.136C15.9387 11.9333 16.3173 11.832 16.744 11.832C17.3627 11.832 17.872 12.04 18.272 12.456C18.672 12.872 18.872 13.3893 18.872 14.008C18.872 14.3333 18.7973 14.6587 18.648 14.984C18.504 15.304 18.2293 15.6453 17.824 16.008L12.808 20.504L12.8 21.992Z" fill="white"/>
</svg>
