<svg width="32" height="32" viewBox="0 0 32 32" fill="none" xmlns="http://www.w3.org/2000/svg">
<circle cx="16" cy="16" r="15.5" fill="white" stroke="#E5E5E5"/>
<g clip-path="url(#clip0_127_1492)">
<path d="M10.0613 18.2256L9.31871 20.9977L6.60458 21.0551C5.79346 19.5507 5.33337 17.8294 5.33337 16.0002C5.33337 14.2314 5.76354 12.5634 6.52604 11.0947H6.52662L8.94296 11.5377L10.0015 13.9396C9.77992 14.5854 9.65917 15.2788 9.65917 16.0002C9.65925 16.7832 9.80108 17.5334 10.0613 18.2256Z" fill="#FBBB00"/>
<path d="M26.4803 14.0073C26.6028 14.6526 26.6667 15.3189 26.6667 16C26.6667 16.7637 26.5864 17.5086 26.4334 18.2271C25.9142 20.6722 24.5574 22.8073 22.6778 24.3182L22.6772 24.3177L19.6337 24.1624L19.203 21.4734C20.4502 20.742 21.4248 19.5974 21.9382 18.2271H16.2345V14.0073H22.0215H26.4803Z" fill="#518EF8"/>
<path d="M22.6773 24.3179L22.6779 24.3185C20.8499 25.7878 18.5278 26.6669 16.0001 26.6669C11.9379 26.6669 8.40624 24.3964 6.60461 21.0552L10.0613 18.2256C10.9621 20.6297 13.2812 22.341 16.0001 22.341C17.1687 22.341 18.2635 22.0251 19.203 21.4736L22.6773 24.3179Z" fill="#28B446"/>
<path d="M22.8085 7.78916L19.353 10.6182C18.3807 10.0104 17.2313 9.65933 16 9.65933C13.2196 9.65933 10.8571 11.4492 10.0015 13.9395L6.52658 11.0947H6.526C8.30125 7.67195 11.8775 5.3335 16 5.3335C18.5881 5.3335 20.9612 6.25541 22.8085 7.78916Z" fill="#F14336"/>
</g>
<defs>
<clipPath id="clip0_127_1492">
<rect width="21.3333" height="21.3333" fill="white" transform="translate(5.33337 5.3335)"/>
</clipPath>
</defs>
</svg>
