<svg width="24" height="24" viewBox="0 0 24 24" fill="none" xmlns="http://www.w3.org/2000/svg">
<circle cx="12" cy="12" r="12" fill="#DADADA"/>
<path d="M8.6 15.994H14.444V14.8H10.538L13.04 12.568C13.352 12.292 13.612 12.036 13.82 11.8C14.028 11.564 14.184 11.308 14.288 11.032C14.392 10.752 14.444 10.416 14.444 10.024C14.444 9.476 14.318 8.988 14.066 8.56C13.818 8.132 13.478 7.796 13.046 7.552C12.614 7.304 12.126 7.18 11.582 7.18C11.01 7.18 10.5 7.3 10.052 7.54C9.608 7.776 9.26 8.106 9.008 8.53C8.756 8.95 8.63 9.44 8.63 10H9.914C9.91 9.708 9.978 9.44 10.118 9.196C10.262 8.948 10.458 8.75 10.706 8.602C10.954 8.45 11.238 8.374 11.558 8.374C12.022 8.374 12.404 8.53 12.704 8.842C13.004 9.154 13.154 9.542 13.154 10.006C13.154 10.25 13.098 10.494 12.986 10.738C12.878 10.978 12.672 11.234 12.368 11.506L8.606 14.878L8.6 15.994Z" fill="white"/>
</svg>
