<svg width="213" height="42" viewBox="0 0 213 42" fill="none" xmlns="http://www.w3.org/2000/svg">
<path d="M80 10.8825C80 10.5325 80.1409 10.3564 80.4244 10.3564H81.8256C81.9189 10.3564 82.0141 10.3848 82.1092 10.4414C82.2025 10.4981 82.2848 10.6073 82.3543 10.7672L88.755 24.7281L89.1666 26.0796L89.0385 24.7139L88.9361 10.8805C88.9361 10.7287 88.9727 10.6033 89.0458 10.5042C89.119 10.405 89.2269 10.3564 89.3733 10.3564H90.8129C90.9337 10.3564 91.0324 10.3969 91.1074 10.4779C91.1843 10.5588 91.2245 10.6883 91.2245 10.8684V30.1182C91.2245 30.4581 91.0745 30.6301 90.7745 30.6301H89.4117C89.3184 30.6301 89.2196 30.6038 89.1172 30.5512C89.0147 30.4986 88.9324 30.3934 88.872 30.2315L82.5098 16.4689L82.0598 15.0768L82.2006 16.4831L82.2775 30.102C82.2775 30.452 82.1403 30.628 81.8659 30.628H80.4262C80.1427 30.628 80.0018 30.452 80.0018 30.102V10.8825H80Z" fill="#021122"/>
<path d="M106.112 30.0894C106.163 30.2512 106.158 30.3807 106.092 30.4799C106.028 30.579 105.931 30.6296 105.803 30.6296H104.144C104.051 30.6296 103.955 30.6013 103.86 30.5446C103.767 30.488 103.701 30.3787 103.668 30.2168L102.807 26.4777H97.2548L96.406 30.2168C96.3713 30.3787 96.3072 30.4859 96.2139 30.5446C96.1206 30.6013 96.0255 30.6296 95.9304 30.6296H94.2731C94.145 30.6296 94.0499 30.579 93.9895 30.4799C93.9291 30.3807 93.92 30.2512 93.9639 30.0894L98.8609 10.7829C98.903 10.621 98.9652 10.5077 99.0475 10.4409C99.128 10.3742 99.2213 10.3418 99.3237 10.3418H100.751C100.853 10.3418 100.948 10.3742 101.034 10.4409C101.12 10.5077 101.184 10.621 101.226 10.7829L106.112 30.0894ZM97.8072 24.0902H102.267L100.237 15.1917L100.044 13.6843L99.8524 15.1917L97.8072 24.0902Z" fill="#021122"/>
<path d="M113.529 10.8703C113.529 10.6801 113.571 10.5486 113.657 10.4717C113.743 10.3948 113.832 10.3584 113.927 10.3584H115.47C115.641 10.3584 115.759 10.407 115.823 10.5081C115.887 10.6073 115.92 10.7489 115.92 10.927L115.907 25.9541C115.907 26.7129 115.79 27.3988 115.554 28.0159C115.318 28.633 114.999 29.155 114.597 29.586C114.194 30.017 113.719 30.3508 113.17 30.5875C112.621 30.8243 112.034 30.9436 111.408 30.9436C110.741 30.9436 110.099 30.804 109.488 30.5248C108.875 30.2456 108.372 29.8672 107.977 29.3958C107.891 29.3007 107.823 29.1773 107.77 29.0255C107.719 28.8738 107.754 28.7321 107.872 28.5986L108.708 27.5182C108.829 27.3866 108.946 27.334 109.061 27.3624C109.179 27.3907 109.283 27.4615 109.376 27.5748C109.565 27.7731 109.824 27.9653 110.154 28.1514C110.483 28.3356 110.862 28.4286 111.291 28.4286C111.617 28.4286 111.917 28.3599 112.191 28.2223C112.466 28.0847 112.702 27.8925 112.898 27.6456C113.095 27.3988 113.249 27.1013 113.36 26.7493C113.472 26.3972 113.527 26.0148 113.527 25.598V10.8703H113.529Z" fill="#021122"/>
<path d="M118.96 16.8975C118.96 15.9587 119.081 15.0724 119.32 14.2388C119.56 13.4052 119.919 12.6728 120.394 12.0415C120.87 11.4123 121.461 10.9145 122.169 10.5483C122.875 10.1841 123.696 10 124.629 10C125.555 10 126.37 10.1821 127.078 10.5483C127.784 10.9125 128.381 11.4082 128.866 12.0334C129.35 12.6586 129.714 13.3891 129.958 14.2227C130.203 15.0563 130.324 15.9425 130.324 16.8813V24.1187C130.324 25.0575 130.201 25.9437 129.958 26.7773C129.713 27.6109 129.352 28.3414 128.871 28.9666C128.392 29.5918 127.795 30.0875 127.084 30.4517C126.372 30.8159 125.555 31 124.629 31C123.703 31 122.889 30.8179 122.187 30.4517C121.484 30.0875 120.894 29.5918 120.412 28.9666C119.933 28.3414 119.571 27.6109 119.326 26.7773C119.081 25.9437 118.96 25.0575 118.96 24.1187V16.8975ZM121.338 24.2907C121.338 24.8774 121.409 25.4278 121.55 25.9397C121.691 26.4516 121.901 26.8947 122.18 27.269C122.458 27.6433 122.801 27.9407 123.208 28.1572C123.614 28.3758 124.087 28.485 124.627 28.485C125.167 28.485 125.642 28.3758 126.054 28.1572C126.466 27.9387 126.811 27.6433 127.095 27.269C127.378 26.8947 127.591 26.4536 127.731 25.9478C127.872 25.442 127.944 24.8936 127.944 24.3048V16.6992C127.944 16.1205 127.87 15.5783 127.724 15.0704C127.578 14.5626 127.366 14.1195 127.088 13.7411C126.809 13.3628 126.464 13.0613 126.052 12.8387C125.641 12.6161 125.165 12.5049 124.625 12.5049C124.093 12.5049 123.623 12.6141 123.211 12.8306C122.8 13.0491 122.454 13.3466 122.176 13.7269C121.898 14.1073 121.687 14.5525 121.547 15.0644C121.406 15.5763 121.334 16.1205 121.334 16.6992V24.2907H121.338Z" fill="#021122"/>
<path d="M132.009 10.84C132.009 10.6782 132.045 10.5588 132.119 10.4779C132.192 10.3969 132.283 10.3564 132.395 10.3564H142.703C142.805 10.3564 142.893 10.3969 142.966 10.4779C143.039 10.5588 143.076 10.6802 143.076 10.84V12.4182C143.076 12.5801 143.039 12.6954 142.966 12.7662C142.893 12.8371 142.805 12.8715 142.703 12.8715H138.731V30.1446C138.731 30.3065 138.697 30.4258 138.629 30.5068C138.559 30.5877 138.47 30.6282 138.358 30.6282H136.739C136.619 30.6282 136.525 30.5877 136.456 30.5068C136.388 30.4258 136.353 30.3065 136.353 30.1446V12.8715H132.395C132.283 12.8715 132.192 12.835 132.119 12.7662C132.045 12.6954 132.009 12.5781 132.009 12.4182V10.84Z" fill="#021122"/>
<path d="M149.705 10.84C149.705 10.6782 149.742 10.5588 149.815 10.4779C149.888 10.3969 149.979 10.3564 150.091 10.3564H160.399C160.502 10.3564 160.589 10.3969 160.663 10.4779C160.736 10.5588 160.772 10.6802 160.772 10.84V12.4182C160.772 12.5801 160.736 12.6954 160.663 12.7662C160.589 12.8371 160.502 12.8715 160.399 12.8715H156.428V30.1446C156.428 30.3065 156.393 30.4258 156.325 30.5068C156.256 30.5877 156.166 30.6282 156.055 30.6282H154.436C154.315 30.6282 154.222 30.5877 154.152 30.5068C154.083 30.4258 154.05 30.3065 154.05 30.1446V12.8715H150.091C149.979 12.8715 149.886 12.835 149.815 12.7662C149.742 12.6954 149.705 12.5781 149.705 12.4182V10.84Z" fill="#021122"/>
<path d="M172.621 30.0894C172.672 30.2512 172.665 30.3807 172.601 30.4799C172.537 30.579 172.44 30.6296 172.312 30.6296H170.654C170.559 30.6296 170.466 30.6013 170.371 30.5446C170.278 30.488 170.214 30.3787 170.179 30.2168L169.317 26.4777H163.764L162.915 30.2168C162.88 30.3787 162.816 30.4859 162.723 30.5446C162.628 30.6013 162.534 30.6296 162.439 30.6296H160.782C160.654 30.6296 160.559 30.579 160.498 30.4799C160.438 30.3807 160.429 30.2512 160.473 30.0894L165.37 10.7829C165.412 10.621 165.474 10.5077 165.556 10.4409C165.637 10.3742 165.73 10.3418 165.832 10.3418H167.259C167.362 10.3418 167.457 10.3742 167.543 10.4409C167.627 10.5077 167.693 10.621 167.735 10.7829L172.621 30.0894ZM164.316 24.0902H168.778L166.747 15.1917L166.555 13.6843L166.361 15.1917L164.316 24.0902Z" fill="#021122"/>
<path d="M174.509 10.9812C174.509 10.8011 174.549 10.6574 174.631 10.5482C174.714 10.4389 174.834 10.3843 174.997 10.3843H176.642C176.967 10.3843 177.13 10.5826 177.13 10.9812V13.4132C177.13 13.7167 177.083 13.9757 176.989 14.1881C176.894 14.4006 176.768 14.5766 176.611 14.7142C176.452 14.8518 176.27 14.9529 176.064 15.0197C175.859 15.0865 175.648 15.1189 175.434 15.1189C175.169 15.1189 175.036 14.9995 175.036 14.7648V14.1821C175.036 14.0687 175.074 13.9878 175.151 13.9393C175.228 13.8927 175.317 13.8684 175.422 13.8684C175.542 13.8684 175.625 13.8361 175.672 13.7693C175.72 13.7025 175.744 13.6074 175.744 13.486C175.744 13.3626 175.723 13.2756 175.685 13.223C175.647 13.1704 175.577 13.1441 175.473 13.1441H174.946C174.825 13.1441 174.723 13.1016 174.637 13.0166C174.551 12.9316 174.509 12.7941 174.509 12.6039V10.9812Z" fill="#021122"/>
<path d="M180.649 10.8825C180.649 10.5325 180.79 10.3564 181.074 10.3564H182.603C182.887 10.3564 183.027 10.5325 183.027 10.8825V28.1272H189.029C189.15 28.1272 189.245 28.1637 189.318 28.2345C189.392 28.3053 189.428 28.4226 189.428 28.5825V30.1465C189.428 30.3084 189.392 30.4277 189.318 30.5087C189.245 30.5896 189.15 30.6301 189.029 30.6301H181.074C180.79 30.6301 180.649 30.4541 180.649 30.104V10.8825Z" fill="#021122"/>
<path d="M192.248 10.8825C192.248 10.5325 192.394 10.3564 192.685 10.3564H194.215C194.489 10.3564 194.626 10.5325 194.626 10.8825V30.104C194.626 30.4541 194.489 30.6301 194.215 30.6301H192.685C192.394 30.6301 192.248 30.4541 192.248 30.104V10.8825Z" fill="#021122"/>
<path d="M201.456 16.5696L200.993 14.7223L201.147 16.5554L201.249 30.1177C201.265 30.4576 201.137 30.6296 200.863 30.6296H199.359C199.222 30.6296 199.127 30.583 199.076 30.4879C199.025 30.3929 198.999 30.2654 198.999 30.1035V10.8112C199.006 10.6696 199.043 10.5563 199.109 10.4693C199.173 10.3843 199.266 10.3418 199.385 10.3418H201.198C201.309 10.3418 201.388 10.3802 201.436 10.4551C201.483 10.532 201.529 10.6352 201.571 10.7687L205.795 23.1656L206 24.3452L206.206 23.1514L210.454 10.7687C210.496 10.6372 210.542 10.532 210.589 10.4551C210.637 10.3802 210.715 10.3418 210.827 10.3418H212.616C212.735 10.3418 212.826 10.3843 212.89 10.4693C212.954 10.5542 212.991 10.6675 212.998 10.8112V30.1035C213.015 30.4536 212.9 30.6296 212.654 30.6296H211.145C210.891 30.6296 210.761 30.4596 210.761 30.1177L210.876 16.5696L211.017 14.7789L210.58 16.5696L206.982 27.0463C206.938 27.2082 206.887 27.3194 206.828 27.3801C206.768 27.4408 206.687 27.4732 206.583 27.4732H205.427C205.332 27.4732 205.255 27.4429 205.197 27.3801C205.136 27.3194 205.085 27.2061 205.043 27.0463L201.456 16.5696Z" fill="#021122"/>
<path d="M62 12.5987L60.3506 12.8864C56.989 13.4732 53.8615 14.3686 51.0151 15.4224V6.34274L50.1365 6.74087C48.1405 7.64374 46.2476 8.58718 44.4436 9.58156L44.3827 0.0688706L43.4274 0.683993C38.7797 3.67375 34.518 7.07107 30.7125 10.8109C27.0474 7.32014 22.9159 3.93037 18.3797 0.700031L17.3962 0V9.85988C15.4312 8.74756 13.4164 7.73431 11.3596 6.82861L10.482 6.4418L10.5232 14.8846C7.5128 13.8431 4.48183 13.1629 1.47802 12.8553L0 12.7043L11.8316 27.5994L11.7792 16.696C13.8126 17.4951 15.6944 18.4074 17.3972 19.348V28.7871L17.5199 28.9541C20.9986 33.6713 30.1505 41.3443 30.5382 41.6689L30.9344 42L31.3325 41.6707C31.7203 41.35 40.8788 33.7562 44.3602 28.8551L44.5654 28.5022L44.5092 19.7141C46.109 18.8669 47.868 18.0291 49.7693 17.2536V27.6456L62 12.5987ZM51.0151 16.763C53.4363 15.8441 56.0701 15.0384 58.8857 14.4469L51.0151 24.1284V16.763ZM2.85582 14.2912C5.57489 14.6856 8.14503 15.3714 10.5278 16.2262L10.5653 23.9964L2.85582 14.2912ZM43.1417 2.36614L43.1539 10.309C40.3692 11.9185 37.7972 13.6638 35.3788 15.5903C34.8524 15.0073 34.311 14.4252 33.7547 13.844C33.0578 13.1157 32.3385 12.3921 31.6023 11.6713C35.0744 8.26075 38.9109 5.1691 43.1417 2.36614ZM22.1825 20.8179C21.0173 20.0264 19.8352 19.2886 18.642 18.6056V12.0477C20.9545 13.4563 23.1912 15.0073 25.338 16.6923C24.2459 18.0234 23.1931 19.399 22.1825 20.8179ZM26.3056 17.464C27.5223 18.4537 28.709 19.4867 29.8629 20.5604C28.7483 21.6925 27.6609 22.8803 26.594 24.1294C25.6068 23.3114 24.4716 22.4284 23.2034 21.5264C24.1962 20.1311 25.2294 18.7763 26.3056 17.464ZM34.4169 16.3724C33.1561 17.4197 31.9376 18.5178 30.7509 19.6773C29.5697 18.5763 28.3549 17.5178 27.1092 16.5036C28.2669 15.1403 29.4723 13.8214 30.7265 12.5458C32.0256 13.8138 33.2564 15.0894 34.4169 16.3724ZM34.2286 24.9973C32.5586 26.3474 31.4046 27.439 30.808 28.0296C30.2338 27.4239 29.1277 26.3078 27.5485 24.9389C28.6003 23.7086 29.6737 22.5378 30.7724 21.4227C31.9629 22.5708 33.1149 23.7624 34.2286 24.9973ZM26.7402 25.9012C29.0274 27.888 30.3078 29.3324 30.3275 29.3541L30.7808 29.8702L31.2491 29.3674C31.2679 29.3466 32.6063 27.9211 35.0622 25.938C35.8443 26.8361 36.6058 27.756 37.3457 28.6956L30.9747 34.7629L24.5053 28.739C25.2425 27.7588 25.9862 26.8135 26.7402 25.9012ZM31.6603 20.5405C32.8227 19.4075 34.0179 18.3338 35.2514 17.3102C36.5178 18.7565 37.6942 20.2094 38.776 21.6642C38.6599 21.7415 38.5456 21.818 38.4332 21.8934C37.2324 22.7029 36.1562 23.4888 35.2121 24.219C34.0684 22.9482 32.8836 21.7217 31.6603 20.5405ZM36.2152 16.529C38.3882 14.8035 40.6877 13.2261 43.1576 11.7628L43.1688 19.0122C41.954 19.6782 40.8357 20.3443 39.8222 20.9868C38.7179 19.4999 37.5143 18.0131 36.2152 16.529ZM18.642 2.43313C22.7669 5.42949 26.5107 8.52868 29.8348 11.6873C29.1848 12.3477 28.5479 13.0166 27.9259 13.6968C27.3199 14.361 26.7252 15.0394 26.1407 15.7281C23.7448 13.8459 21.2393 12.126 18.642 10.5835V2.43313ZM13.5701 16.0658C12.9715 15.8092 12.3712 15.5658 11.7698 15.3375L11.7361 8.37396C13.6637 9.25702 15.552 10.2363 17.3944 11.3052V17.914C16.129 17.2347 14.8523 16.6168 13.5701 16.0658ZM21.465 21.8434C20.4815 23.2727 19.5393 24.7407 18.6429 26.2455V20.0584C19.6592 20.6585 20.6033 21.2604 21.465 21.8434ZM30.9373 40.3669C29.1623 38.8574 21.9043 32.5986 18.7647 28.5296C19.9317 26.4578 21.1718 24.4671 22.4859 22.5538C23.7157 23.4294 24.8219 24.2907 25.7867 25.0917C24.9025 26.1625 24.0314 27.2767 23.1688 28.439L22.8325 28.8919L30.9841 36.4828L39.0279 28.823L38.6795 28.373C37.83 27.2758 36.9514 26.2049 36.0457 25.1624C36.9542 24.4605 37.9845 23.7086 39.1272 22.9388C39.2537 22.8529 39.3839 22.7661 39.515 22.6793C40.8825 24.5983 42.0861 26.521 43.1155 28.4381C39.9899 32.6411 32.7159 38.8678 30.9373 40.3669ZM43.1791 26.0106C42.3886 24.6775 41.5157 23.3407 40.5612 22.0019C41.3658 21.4934 42.2369 20.9698 43.1707 20.4443L43.1791 26.0106ZM44.4979 18.3037L44.4511 11.0137C46.1399 10.0618 47.9073 9.15701 49.7675 8.29094V15.9017C47.8717 16.6545 46.1099 17.4715 44.4979 18.3037Z" fill="#BA8D5B"/>
</svg>
