<svg width="86" height="86" viewBox="0 0 86 86" fill="none" xmlns="http://www.w3.org/2000/svg">
<g filter="url(#filter0_dd_127_3544)">
<rect x="15" width="56" height="56" rx="16" fill="#FFF0D3"/>
</g>
<path d="M56.3086 25.2862L43.8281 12.8039C43.092 12.0696 41.9013 12.0783 41.1749 12.803C40.4443 13.5354 40.4443 14.7247 41.1749 15.4562L53.6572 27.9376C54.3885 28.6689 55.5773 28.6689 56.3086 27.9376C57.0418 27.2044 57.0418 26.0194 56.3086 25.2862Z" fill="#FF9900"/>
<path d="M40.2498 17.1816L40.1558 17.6525C39.4941 20.9624 37.886 24.1068 35.7109 26.6554L42.5014 33.4459C45.0496 31.2712 48.1508 29.6199 51.4608 28.9574L51.9325 28.8635L40.2498 17.1816Z" fill="#FF9900"/>
<path d="M34.465 28.062L29.8241 32.7019C28.7276 33.7985 28.723 35.5787 29.8241 36.6798L32.4755 39.3312C33.5721 40.4278 35.3523 40.4323 36.4535 39.3312L41.0938 34.6908L34.465 28.062ZM35.1278 35.3542C34.7616 35.7204 34.1683 35.7204 33.8021 35.3542C33.436 34.988 33.436 34.3947 33.8021 34.0285L35.1278 32.7028C35.494 32.3366 36.0873 32.3366 36.4535 32.7028C36.8197 33.069 36.8197 33.6623 36.4535 34.0285L35.1278 35.3542Z" fill="#FF9900"/>
<path d="M45.0088 39.8301L46.2841 38.5548C47.3853 37.4538 47.3817 35.6735 46.2842 34.5778L45.3369 33.6299C44.8134 33.9816 44.3134 34.3637 43.8272 34.7714L44.9585 35.9044C45.3238 36.2678 45.3264 36.8593 44.9585 37.2291L43.6621 38.5255L41.757 36.6797L39.1055 39.3312L43.359 43.4529C44.0849 44.1807 45.2767 44.1848 46.0095 43.452C46.741 42.7205 46.741 41.5312 46.0095 40.7997L45.0088 39.8301Z" fill="#FF9900"/>
<path d="M48.7969 12C48.2787 12 47.8594 12.4193 47.8594 12.9375V14.8125C47.8594 15.3307 48.2787 15.75 48.7969 15.75C49.3151 15.75 49.7344 15.3307 49.7344 14.8125V12.9375C49.7344 12.4193 49.3151 12 48.7969 12Z" fill="#FF9900"/>
<path d="M56.2969 19.5H54.4219C53.9037 19.5 53.4844 19.9193 53.4844 20.4375C53.4844 20.9557 53.9037 21.375 54.4219 21.375H56.2969C56.8151 21.375 57.2344 20.9557 57.2344 20.4375C57.2344 19.9193 56.8151 19.5 56.2969 19.5Z" fill="#FF9900"/>
<path d="M55.0847 14.1496C54.7185 13.7835 54.1252 13.7835 53.759 14.1496L51.884 16.0246C51.5178 16.3908 51.5178 16.9841 51.884 17.3503C52.2502 17.7165 52.8435 17.7166 53.2097 17.3503L55.0847 15.4753C55.4509 15.1091 55.4509 14.5158 55.0847 14.1496Z" fill="#FF9900"/>
<defs>
<filter id="filter0_dd_127_3544" x="0" y="0" width="86" height="86" filterUnits="userSpaceOnUse" color-interpolation-filters="sRGB">
<feFlood flood-opacity="0" result="BackgroundImageFix"/>
<feColorMatrix in="SourceAlpha" type="matrix" values="0 0 0 0 0 0 0 0 0 0 0 0 0 0 0 0 0 0 127 0" result="hardAlpha"/>
<feOffset dy="4"/>
<feGaussianBlur stdDeviation="2"/>
<feComposite in2="hardAlpha" operator="out"/>
<feColorMatrix type="matrix" values="0 0 0 0 1 0 0 0 0 0.6 0 0 0 0 0 0 0 0 0.3 0"/>
<feBlend mode="normal" in2="BackgroundImageFix" result="effect1_dropShadow_127_3544"/>
<feColorMatrix in="SourceAlpha" type="matrix" values="0 0 0 0 0 0 0 0 0 0 0 0 0 0 0 0 0 0 127 0" result="hardAlpha"/>
<feOffset dy="15"/>
<feGaussianBlur stdDeviation="7.5"/>
<feComposite in2="hardAlpha" operator="out"/>
<feColorMatrix type="matrix" values="0 0 0 0 1 0 0 0 0 0.6 0 0 0 0 0 0 0 0 0.15 0"/>
<feBlend mode="normal" in2="effect1_dropShadow_127_3544" result="effect2_dropShadow_127_3544"/>
<feBlend mode="normal" in="SourceGraphic" in2="effect2_dropShadow_127_3544" result="shape"/>
</filter>
</defs>
</svg>
