<svg width="24" height="24" viewBox="0 0 24 24" fill="none" xmlns="http://www.w3.org/2000/svg">
<circle cx="12" cy="12" r="12" fill="white"/>
<g clip-path="url(#clip0_127_3151)">
<path fill-rule="evenodd" clip-rule="evenodd" d="M19.0563 8.8327C19.0563 8.8327 18.9154 7.81872 18.4839 7.3722C17.9362 6.78588 17.3224 6.78312 17.0412 6.74909C15.0261 6.6001 12.0034 6.6001 12.0034 6.6001H11.9971C11.9971 6.6001 8.97449 6.6001 6.95939 6.74909C6.67769 6.78312 6.06434 6.78588 5.51624 7.3722C5.08469 7.81872 4.94429 8.8327 4.94429 8.8327C4.94429 8.8327 4.80029 10.0237 4.80029 11.2143V12.3308C4.80029 13.5219 4.94429 14.7124 4.94429 14.7124C4.94429 14.7124 5.08469 15.7264 5.51624 16.1729C6.06434 16.7593 6.78389 16.7409 7.10429 16.802C8.25629 16.9151 12.0003 16.9501 12.0003 16.9501C12.0003 16.9501 15.0261 16.9455 17.0412 16.7965C17.3224 16.762 17.9362 16.7593 18.4839 16.1729C18.9154 15.7264 19.0563 14.7124 19.0563 14.7124C19.0563 14.7124 19.2003 13.5219 19.2003 12.3308V11.2143C19.2003 10.0237 19.0563 8.8327 19.0563 8.8327Z" fill="#CE1312"/>
<path fill-rule="evenodd" clip-rule="evenodd" d="M10.5131 13.6836L10.5127 9.54907L14.4034 11.6235L10.5131 13.6836Z" fill="white"/>
</g>
<defs>
<clipPath id="clip0_127_3151">
<rect width="14.4" height="10.35" fill="white" transform="translate(4.80029 6.6001)"/>
</clipPath>
</defs>
</svg>
